<?xml version="1.0" encoding="UTF-8" standalone="no"?>
<!-- Created with Inkscape (http://www.inkscape.org/) -->

<svg
   width="105.83334mm"
   height="26.431761mm"
   viewBox="0 0 105.83333 26.431761"
   version="1.1"
   id="svg1"
   inkscape:version="1.3 (0e150ed6c4, 2023-07-21)"
   sodipodi:docname="Banc of America Securities Logo 18.03.2002.svg"
   xmlns:inkscape="http://www.inkscape.org/namespaces/inkscape"
   xmlns:sodipodi="http://sodipodi.sourceforge.net/DTD/sodipodi-0.dtd"
   xmlns="http://www.w3.org/2000/svg"
   xmlns:svg="http://www.w3.org/2000/svg">
  <sodipodi:namedview
     id="namedview1"
     pagecolor="#ffffff"
     bordercolor="#111111"
     borderopacity="1"
     inkscape:showpageshadow="0"
     inkscape:pageopacity="0"
     inkscape:pagecheckerboard="1"
     inkscape:deskcolor="#d1d1d1"
     inkscape:document-units="mm"
     inkscape:zoom="0.56390993"
     inkscape:cx="74.479979"
     inkscape:cy="18.619995"
     inkscape:window-width="1600"
     inkscape:window-height="829"
     inkscape:window-x="-8"
     inkscape:window-y="-8"
     inkscape:window-maximized="1"
     inkscape:current-layer="layer1" />
  <defs
     id="defs1" />
  <g
     inkscape:label="Layer 1"
     inkscape:groupmode="layer"
     id="layer1"
     transform="translate(-85.460423,-143.66875)">
    <path
       id="path211"
       d="m 153.92745,145.83346 c -0.0859,-0.25547 -0.2891,-0.88227 -0.99985,-0.88227 -0.5204,0 -0.74427,0.3591 -0.74427,0.64724 0,0.48688 0.46826,0.65946 1.2218,0.94674 0.79842,0.30676 1.9567,0.74236 1.9567,2.17493 0,1.20776 -0.85056,2.25888 -2.51999,2.25888 -0.50923,0 -1.27595,-0.0951 -1.85041,-0.7414 -0.39176,-0.45613 -0.5205,-0.89163 -0.60435,-1.2004 l 1.3598,-0.3824 c 0.0839,0.31898 0.28728,1.06144 1.13784,1.06144 0.53349,0 0.90281,-0.29568 0.90281,-0.76013 0,-0.50273 -0.44582,-0.70511 -0.9774,-0.89449 -0.96813,-0.34974 -2.13768,-0.76471 -2.13768,-2.20942 0,-1.10337 0.71256,-2.1629 2.26633,-2.1629 1.76273,0 2.13587,1.17519 2.28505,1.64431 z"
       style="fill:#0c479d;fill-opacity:1;fill-rule:nonzero;stroke:none;stroke-width:0.95505" />
    <path
       id="path212"
       d="m 178.464,143.81334 v 2.08268 h 0.9774 v 1.13689 h -0.9774 v 1.74411 c 0,0.96059 0,1.08742 1.05209,1.02401 v 1.08006 c -0.21269,0.0466 -0.51306,0.10353 -0.91217,0.10353 -0.48125,0 -1.02038,-0.11098 -1.32064,-0.52509 -0.25748,-0.36091 -0.25748,-0.87578 -0.25748,-1.5296 v -1.89702 h -0.57819 v -1.13784 h 0.65287 v -2.08173 z"
       style="fill:#0c479d;fill-opacity:1;fill-rule:nonzero;stroke:none;stroke-width:0.95505" />
    <path
       id="path213"
       d="m 108.90211,145.75611 c 1.49781,0 2.24208,1.10145 2.24208,2.58999 0,1.54728 -0.71438,2.62821 -2.24208,2.62821 -1.52588,0 -2.24026,-1.08093 -2.24026,-2.62821 0,-1.48854 0.74236,-2.58999 2.24026,-2.58999 m 0,4.20632 c 0.3973,0 0.57638,-0.35633 0.57638,-1.61633 0,-1.15093 -0.11757,-1.57621 -0.57638,-1.57621 -0.45336,0 -0.57455,0.42528 -0.57455,1.57621 0,1.26 0.17907,1.61633 0.57455,1.61633 z"
       style="fill:#0c479d;fill-opacity:1;fill-rule:nonzero;stroke:none;stroke-width:0.95505" />
    <path
       id="path214"
       d="m 112.17946,147.02174 h -0.65468 v -1.13231 h 0.65468 v -0.55584 c 0,-1.22084 0.60627,-1.66484 1.6657,-1.66484 0.3209,0 0.55775,0.0271 0.81332,0.0551 v 1.23478 c -0.0895,-0.0205 -0.20514,-0.041 -0.29654,-0.041 -0.42347,0 -0.57456,0.16503 -0.57456,0.46912 v 0.50264 h 0.8711 v 1.13231 h -0.8711 v 3.87798 h -1.60792 z"
       style="fill:#0c479d;fill-opacity:1;fill-rule:nonzero;stroke:none;stroke-width:0.95505" />
    <path
       id="path215"
       d="m 93.444064,147.27444 c 0,-0.29654 -0.138004,-0.49147 -0.415924,-0.49147 -0.384312,0 -0.507418,0.36464 -0.526041,0.65374 l -1.399052,-0.28633 c 0.179072,-0.98112 1.070706,-1.37938 1.984784,-1.37938 0.960589,0 1.964155,0.41411 1.964155,1.51653 v 2.77747 c 0,0.56702 0.08958,0.76949 0.149274,0.83472 h -1.656438 c -0.02989,-0.13524 -0.04288,-0.40571 -0.05043,-0.4887 -0.274194,0.28909 -0.749809,0.55125 -1.223609,0.55125 -0.800236,0 -1.408316,-0.54103 -1.387782,-1.45502 0.03725,-1.29543 1.501528,-1.67878 2.56106,-1.80284 v -0.42997 m 0,1.20317 c -0.561473,0.0541 -0.981122,0.26952 -0.981122,0.90377 0,0.34506 0.177162,0.52508 0.466255,0.52508 0.182892,0 0.378677,-0.12501 0.514867,-0.30685 z"
       style="fill:#0c479d;fill-opacity:1;fill-rule:nonzero;stroke:none;stroke-width:0.95505" />
    <path
       id="path216"
       d="m 97.598148,147.30529 v 3.59443 h -1.609736 v -5.01029 h 1.574303 l 0.0076,0.50923 h 0.02053 c 0.332071,-0.33761 0.774163,-0.62766 1.400867,-0.62766 0.703203,0 1.104328,0.47476 1.104328,1.15934 v 3.96938 h -1.607926 v -3.46015 c 0,-0.28451 -0.09894,-0.44028 -0.369413,-0.44028 -0.179072,0 -0.374857,0.12034 -0.520406,0.306 z"
       style="fill:#0c479d;fill-opacity:1;fill-rule:nonzero;stroke:none;stroke-width:0.95505" />
    <path
       id="path217"
       d="m 89.1706,147.19336 c 0.764803,0.25271 1.320642,0.88132 1.320642,1.78327 0,1.21243 -0.969948,1.92309 -2.311124,1.92309 h -2.719695 v -7.09478 h 2.788745 c 1.253503,0 2.072362,0.75076 2.072362,1.72635 0,0.92525 -0.637973,1.41022 -1.15093,1.60887 v 0.0532 m -1.977239,2.36613 h 0.654686 c 0.388037,0 0.900994,-0.16789 0.900994,-0.89344 0,-0.52605 -0.324526,-0.87301 -0.900994,-0.87301 h -0.654686 v 1.76645 m 0,-2.95463 h 0.585732 c 0.645422,0 0.900898,-0.34697 0.900898,-0.76481 0,-0.67245 -0.455081,-0.78161 -0.861741,-0.78161 h -0.624889 z"
       style="fill:#0c479d;fill-opacity:1;fill-rule:nonzero;stroke:none;stroke-width:0.95505" />
    <path
       id="path218"
       d="m 147.22348,147.27444 c 0,-0.29654 -0.1381,-0.49147 -0.41602,-0.49147 -0.38613,0 -0.50733,0.36464 -0.52605,0.65374 l -1.39895,-0.28633 c 0.17907,-0.98112 1.07252,-1.37938 1.98287,-1.37938 0.96432,0 1.96416,0.41411 1.96416,1.51653 v 2.77747 c 0,0.56702 0.0895,0.76949 0.14918,0.83472 h -1.65635 c -0.0317,-0.13524 -0.0391,-0.40571 -0.0485,-0.4887 -0.27611,0.28909 -0.74991,0.55125 -1.22371,0.55125 -0.80014,0 -1.41204,-0.54103 -1.38778,-1.45502 0.0354,-1.29543 1.49971,-1.67878 2.56116,-1.80284 v -0.42997 m 0,1.20317 c -0.56148,0.0541 -0.98122,0.26952 -0.98122,0.90377 0,0.3441 0.17725,0.52508 0.46444,0.52508 0.1847,0 0.37868,-0.12501 0.51678,-0.30685 z"
       style="fill:#0c479d;fill-opacity:1;fill-rule:nonzero;stroke:none;stroke-width:0.95505" />
    <path
       id="path219"
       d="m 130.7078,148.72383 c -0.0242,0.44486 0.0932,1.18072 0.74427,1.18072 0.38422,0 0.71066,-0.28536 0.79279,-0.68458 l 1.08188,0.39731 c -0.0709,0.22758 -0.56711,1.35703 -1.99596,1.35703 -1.53514,0 -2.22908,-1.23947 -2.22908,-2.61799 0,-1.40736 0.73309,-2.60021 2.21237,-2.60021 1.54632,0 2.08163,1.32904 2.08163,2.63011 v 0.33761 h -2.6879 m 1.19936,-0.95505 c 0.015,-0.45976 -0.0503,-0.99889 -0.60436,-0.99889 -0.45699,0 -0.62116,0.53072 -0.595,0.99889 z"
       style="fill:#0c479d;fill-opacity:1;fill-rule:nonzero;stroke:none;stroke-width:0.95505" />
    <path
       id="path220"
       d="m 157.48462,148.72383 c -0.0205,0.44486 0.0951,1.18072 0.74427,1.18072 0.38794,0 0.71257,-0.28536 0.7946,-0.68458 l 1.08188,0.39731 c -0.0709,0.22758 -0.56701,1.35703 -1.99586,1.35703 -1.53706,0 -2.2309,-1.23947 -2.2309,-2.61799 0,-1.40736 0.73491,-2.60021 2.21228,-2.60021 1.54632,0 2.08544,1.32904 2.08544,2.63011 v 0.33761 h -2.69171 m 1.20126,-0.95505 c 0.0168,-0.45976 -0.0485,-0.99889 -0.60244,-0.99889 -0.45709,0 -0.62117,0.53072 -0.59882,0.99889 z"
       style="fill:#0c479d;fill-opacity:1;fill-rule:nonzero;stroke:none;stroke-width:0.95505" />
    <path
       id="path221"
       d="m 184.2241,148.72383 c -0.0223,0.44486 0.0933,1.18072 0.74427,1.18072 0.38613,0 0.71256,-0.28536 0.7947,-0.68458 l 1.07997,0.39731 c -0.0709,0.22758 -0.5652,1.35703 -1.99405,1.35703 -1.53515,0 -2.2309,-1.23947 -2.2309,-2.61799 0,-1.40736 0.73491,-2.60021 2.21227,-2.60021 1.54642,0 2.08173,1.32904 2.08173,2.63011 v 0.33761 h -2.68799 m 1.20136,-0.95505 c 0.013,-0.45976 -0.0504,-0.99889 -0.60627,-0.99889 -0.45518,0 -0.61925,0.53072 -0.59509,0.99889 z"
       style="fill:#0c479d;fill-opacity:1;fill-rule:nonzero;stroke:none;stroke-width:0.95505" />
    <path
       id="path222"
       d="m 137.72895,145.88943 h 1.60601 v 5.01029 h -1.60601 z"
       style="fill:#0c479d;fill-opacity:1;fill-rule:nonzero;stroke:none;stroke-width:0.95505" />
    <path
       id="path223"
       d="m 137.72895,143.80494 h 1.60601 v 1.4298 h -1.60601 z"
       style="fill:#0c479d;fill-opacity:1;fill-rule:nonzero;stroke:none;stroke-width:0.95505" />
    <path
       id="path224"
       d="m 174.07861,145.88943 h 1.60792 v 5.01029 h -1.60792 z"
       style="fill:#0c479d;fill-opacity:1;fill-rule:nonzero;stroke:none;stroke-width:0.95505" />
    <path
       id="path225"
       d="m 174.07861,143.80494 h 1.60792 v 1.4298 h -1.60792 z"
       style="fill:#0c479d;fill-opacity:1;fill-rule:nonzero;stroke:none;stroke-width:0.95505" />
    <path
       id="path226"
       d="m 180.40018,145.88943 h 1.60792 v 5.01688 h -1.60792 z"
       style="fill:#0c479d;fill-opacity:1;fill-rule:nonzero;stroke:none;stroke-width:0.95505" />
    <path
       id="path227"
       d="m 180.40018,143.80494 h 1.60792 v 1.4298 h -1.60792 z"
       style="fill:#0c479d;fill-opacity:1;fill-rule:nonzero;stroke:none;stroke-width:0.95505" />
    <path
       id="path228"
       d="m 142.89958,147.73143 c 0,-0.19769 -0.008,-0.43827 -0.0802,-0.62393 -0.0783,-0.19865 -0.20705,-0.33761 -0.46444,-0.33761 -0.53531,0 -0.595,0.65755 -0.595,1.64803 0,1.11827 0.17717,1.48663 0.595,1.48663 0.5652,0 0.61371,-0.57541 0.61371,-0.95132 l 1.24978,0.1763 c -0.11756,1.21158 -0.81141,1.84478 -1.98287,1.84478 -1.44938,0 -2.20292,-1.2665 -2.20292,-2.49861 0,-1.35703 0.75354,-2.71959 2.27197,-2.71959 1.70677,0 1.96415,1.48013 1.96415,1.97532 z"
       style="fill:#0c479d;fill-opacity:1;fill-rule:nonzero;stroke:none;stroke-width:0.95505" />
    <path
       id="path229"
       d="m 163.53018,147.73143 c 0,-0.19769 -0.01,-0.43827 -0.0784,-0.62393 -0.0783,-0.19865 -0.20887,-0.33761 -0.46625,-0.33761 -0.5354,0 -0.59509,0.65755 -0.59509,1.64803 0,1.11827 0.17907,1.48663 0.59509,1.48663 0.5652,0 0.61553,-0.57541 0.61553,-0.95132 l 1.24977,0.1763 c -0.11938,1.21158 -0.81513,1.84478 -1.98287,1.84478 -1.44938,0 -2.20292,-1.2665 -2.20292,-2.49861 0,-1.35703 0.75354,-2.71959 2.27197,-2.71959 1.70486,0 1.96416,1.48013 1.96416,1.97532 z"
       style="fill:#0c479d;fill-opacity:1;fill-rule:nonzero;stroke:none;stroke-width:0.95505" />
    <path
       id="path230"
       d="m 103.70903,147.73143 c 0,-0.19769 -0.0113,-0.43827 -0.0802,-0.62393 -0.0802,-0.19865 -0.20897,-0.33761 -0.46826,-0.33761 -0.53349,0 -0.59318,0.65755 -0.59318,1.64803 0,1.11827 0.17725,1.48663 0.59318,1.48663 0.56711,0 0.61562,-0.57541 0.61562,-0.95132 l 1.24978,0.1763 c -0.11757,1.21158 -0.81332,1.84478 -1.98106,1.84478 -1.44929,0 -2.20473,-1.2665 -2.20473,-2.49861 0,-1.35703 0.75544,-2.71959 2.27197,-2.71959 1.70677,0 1.96224,1.48013 1.96224,1.97532 z"
       style="fill:#0c479d;fill-opacity:1;fill-rule:nonzero;stroke:none;stroke-width:0.95505" />
    <path
       id="path231"
       d="m 117.45458,143.80494 h 2.3392 l 1.50898,7.09478 h -1.73656 l -0.27983,-1.46152 h -1.63591 l -0.30399,1.46152 h -1.54823 l 1.65634,-7.09478 m 0.44582,4.38635 h 1.13976 l -0.50742,-2.88005 h -0.0354 z"
       style="fill:#0c479d;fill-opacity:1;fill-rule:nonzero;stroke:none;stroke-width:0.95505" />
    <path
       id="path232"
       d="m 134.05602,145.88943 h 1.55386 l 0.0168,0.67341 h 0.028 c 0.32644,-0.52414 0.92516,-0.79184 1.54451,-0.79184 v 1.62569 c -0.17907,-0.07 -0.37495,-0.13992 -0.65287,-0.13992 -0.41039,0 -0.69203,0.16408 -0.88237,0.38795 v 3.255 h -1.60792 z"
       style="fill:#0c479d;fill-opacity:1;fill-rule:nonzero;stroke:none;stroke-width:0.95505" />
    <path
       id="path233"
       d="m 170.40577,145.88943 h 1.55568 l 0.0149,0.67341 h 0.0262 c 0.32825,-0.52414 0.92707,-0.79184 1.54823,-0.79184 v 1.62569 c -0.18098,-0.07 -0.37686,-0.13992 -0.65478,-0.13992 -0.41038,0 -0.69203,0.16408 -0.88418,0.38795 v 3.255 h -1.60602 z"
       style="fill:#0c479d;fill-opacity:1;fill-rule:nonzero;stroke:none;stroke-width:0.95505" />
    <path
       id="path234"
       d="m 125.90266,147.32019 v 3.57953 h -1.57621 v -3.44248 c 0,-0.26856 -0.082,-0.44668 -0.37858,-0.44668 -0.1679,0 -0.40857,0.12215 -0.54467,0.30963 v 3.57953 h -1.57621 v -5.01029 h 1.56867 l 0.008,0.50837 h 0.0204 c 0.33388,-0.31812 0.83939,-0.6268 1.43821,-0.6268 0.4906,0 0.81332,0.28356 0.96441,0.66596 h 0.0223 c 0.27983,-0.30313 0.7629,-0.66596 1.43258,-0.66596 0.66777,0 1.11922,0.44114 1.11922,1.12849 v 4.00023 h -1.57621 v -3.44248 c 0,-0.26856 -0.0802,-0.44668 -0.37305,-0.44668 -0.2146,0 -0.444,0.16781 -0.54848,0.30963 z"
       style="fill:#0c479d;fill-opacity:1;fill-rule:nonzero;stroke:none;stroke-width:0.95505" />
    <path
       id="path235"
       d="m 167.93793,149.4382 v -3.5609 h 1.6061 v 5.02528 h -1.57067 l -0.008,-0.55221 h -0.0224 c -0.33207,0.3358 -0.77416,0.6268 -1.39905,0.6268 -0.70512,0 -1.10614,-0.47752 -1.10614,-1.16029 v -3.93958 h 1.60611 v 3.43226 c 0,0.28355 0.10257,0.44018 0.37113,0.44018 0.17907,0 0.37686,-0.1212 0.52232,-0.31154 z"
       style="fill:#0c479d;fill-opacity:1;fill-rule:nonzero;stroke:none;stroke-width:0.95505" />
    <path
       id="path236"
       d="m 190.0925,147.35744 c -0.0859,-0.25643 -0.23323,-0.68363 -0.76481,-0.68363 -0.33952,0 -0.45699,0.23323 -0.45699,0.44028 0,0.39539 0.28728,0.48774 0.8711,0.69384 0.73119,0.24345 1.55196,0.52041 1.55196,1.54174 0,0.74513 -0.54094,1.6424 -1.98842,1.6424 -1.72176,0 -1.90083,-1.12104 -1.96606,-1.49876 l 1.16019,-0.18375 c 0.0411,0.19492 0.16972,0.75449 0.82822,0.75449 0.14737,0 0.58382,-0.0298 0.58382,-0.46912 0,-0.39921 -0.31898,-0.50179 -0.83939,-0.665 -0.55402,-0.16322 -1.57249,-0.49988 -1.57249,-1.58367 0,-1.08369 0.92525,-1.60133 1.85977,-1.60133 0.88046,0 1.58366,0.4887 1.77391,1.31405 z"
       style="fill:#0c479d;fill-opacity:1;fill-rule:nonzero;stroke:none;stroke-width:0.95505" />
    <path
       id="path238"
       d="m 134.2519,158.45616 c 0.91035,0.35633 1.80943,0.7415 2.69725,1.15189 -2.82962,1.14997 -5.5624,2.51073 -8.17007,4.06918 -0.88046,-0.46167 -1.77773,-0.89909 -2.68608,-1.31033 2.60395,-1.51652 5.33109,-2.82131 8.1589,-3.91074 z"
       style="fill:#0c479d;fill-opacity:1;fill-rule:evenodd;stroke:none;stroke-width:0.95505" />
    <path
       id="path239"
       d="m 130.88124,157.26149 c -2.93601,0.93165 -5.76573,2.146 -8.44617,3.62336 0.85429,0.31059 1.70113,0.63884 2.5368,0.99421 2.59841,-1.53142 5.34045,-2.81472 8.19815,-3.83701 -0.75545,-0.27792 -1.51834,-0.53626 -2.28878,-0.78056 z"
       style="fill:#0c479d;fill-opacity:1;fill-rule:evenodd;stroke:none;stroke-width:0.95505" />
    <path
       id="path240"
       d="m 140.38513,158.33869 c -2.3074,-1.11827 -4.70438,-2.05565 -7.16851,-2.80641 -0.86919,0.24812 -1.7273,0.52041 -2.57968,0.818 2.5368,0.75076 5.00656,1.70209 7.3811,2.83898 0.78152,-0.29941 1.57058,-0.58287 2.36709,-0.85057 z"
       style="fill:#fe000c;fill-opacity:1;fill-rule:evenodd;stroke:none;stroke-width:0.95505" />
    <path
       id="path241"
       d="m 144.15127,157.21574 c -2.36336,-1.02782 -4.80323,-1.89233 -7.30278,-2.57977 -0.7947,0.16694 -1.58185,0.34792 -2.36709,0.5522 2.47529,0.72279 4.88899,1.63677 7.2132,2.73173 0.81332,-0.2527 1.63218,-0.4887 2.45667,-0.70416 z"
       style="fill:#fe000c;fill-opacity:1;fill-rule:evenodd;stroke:none;stroke-width:0.95505" />
    <path
       id="path242"
       d="m 150.19865,159.24895 c -5.92618,1.99214 -11.4755,4.84143 -16.50078,8.40329 1.25733,0.77044 2.48285,1.5893 3.67475,2.44827 4.73418,-3.7521 9.99067,-6.88027 15.64829,-9.25672 -0.92706,-0.55957 -1.86721,-1.08838 -2.82226,-1.59484 z"
       style="fill:#fe000c;fill-opacity:1;fill-rule:evenodd;stroke:none;stroke-width:0.95505" />
    <path
       id="path243"
       d="m 146.12288,157.31087 c -6.15931,1.62845 -11.95302,4.26047 -17.17409,7.72062 1.17701,0.5801 2.33166,1.19849 3.46387,1.85413 5.11668,-3.54228 10.79474,-6.30294 16.85328,-8.11973 -1.03145,-0.51678 -2.08172,-1.00357 -3.14306,-1.45502 z"
       style="fill:#fe000c;fill-opacity:1;fill-rule:evenodd;stroke:none;stroke-width:0.95505" />
    <path
       id="path244"
       d="m 152.54711,163.12788 v -0.90089 h 0.3357 v -0.1213 h -0.8095 v 0.1213 h 0.33761 v 0.90089 z"
       style="fill:#fe000c;fill-opacity:1;fill-rule:nonzero;stroke:none;stroke-width:0.95505" />
    <path
       id="path245"
       d="m 153.019,163.12788 v -1.02219 h 0.20524 l 0.24058,0.72374 c 0.0205,0.0663 0.0373,0.11852 0.0466,0.15204 0.0131,-0.0372 0.0317,-0.0924 0.056,-0.16417 l 0.24621,-0.71161 h 0.18099 v 1.02219 h -0.13056 v -0.85429 l -0.29845,0.85429 h -0.12129 l -0.29655,-0.86823 v 0.86823 z"
       style="fill:#fe000c;fill-opacity:1;fill-rule:nonzero;stroke:none;stroke-width:0.95505" />
  </g>
</svg>
