<?xml version="1.0" encoding="UTF-8" standalone="no"?>
<!-- Created with Inkscape (http://www.inkscape.org/) -->

<svg
   xmlns:dc="http://purl.org/dc/elements/1.1/"
   xmlns:cc="http://creativecommons.org/ns#"
   xmlns:rdf="http://www.w3.org/1999/02/22-rdf-syntax-ns#"
   xmlns:svg="http://www.w3.org/2000/svg"
   xmlns="http://www.w3.org/2000/svg"
   xmlns:sodipodi="http://sodipodi.sourceforge.net/DTD/sodipodi-0.dtd"
   xmlns:inkscape="http://www.inkscape.org/namespaces/inkscape"
   width="149.75203"
   height="41.46838"
   viewBox="0 0 39.62189 10.971842"
   version="1.1"
   id="svg7245"
   inkscape:version="0.92.0 r15299"
   sodipodi:docname="country financial.svg">
  <defs
     id="defs7239" />
  <sodipodi:namedview
     id="base"
     pagecolor="#ffffff"
     bordercolor="#666666"
     borderopacity="1.0"
     inkscape:pageopacity="0.0"
     inkscape:pageshadow="2"
     inkscape:zoom="6.03017"
     inkscape:cx="74.376013"
     inkscape:cy="20.2342"
     inkscape:document-units="mm"
     inkscape:current-layer="layer1"
     showgrid="false"
     fit-margin-top="0"
     fit-margin-left="0"
     fit-margin-right="0"
     fit-margin-bottom="0"
     units="px"
     inkscape:window-width="1280"
     inkscape:window-height="744"
     inkscape:window-x="-4"
     inkscape:window-y="-4"
     inkscape:window-maximized="1" />
  <metadata
     id="metadata7242">
    <rdf:RDF>
      <cc:Work
         rdf:about="">
        <dc:format>image/svg+xml</dc:format>
        <dc:type
           rdf:resource="http://purl.org/dc/dcmitype/StillImage" />
        <dc:title></dc:title>
      </cc:Work>
    </rdf:RDF>
  </metadata>
  <g
     inkscape:label="Layer 1"
     inkscape:groupmode="layer"
     id="layer1"
     transform="translate(-87.666583,-188.57227)">
    <g
       id="g7271">
      <path
         inkscape:connector-curvature="0"
         id="path7090"
         style="fill:#005c3e;fill-opacity:1;fill-rule:nonzero;stroke:none;stroke-width:0.54395318"
         d="m 107.50267,199.41182 c -14.011204,0 -19.703794,-2.39737 -19.703794,-5.3539 0,-2.95707 5.69259,-5.35336 19.703794,-5.35336 14.01011,0 19.65351,2.39629 19.65351,5.35336 0,2.95653 -5.6434,5.3539 -19.65351,5.3539" />
      <path
         inkscape:connector-curvature="0"
         id="path7096"
         style="fill:#ffffff;fill-opacity:1;fill-rule:nonzero;stroke:none;stroke-width:0.54395318"
         d="m 122.04252,197.06425 c 4.13143,-1.1497 4.74802,-2.76545 4.74802,-3.62718 0,-0.0227 -0.003,-0.0449 -0.004,-0.0677 0.0295,0.13695 0.0459,0.27552 0.0459,0.41463 0,0.8363 -0.60895,2.40928 -4.68243,3.54166 -3.51483,0.97811 -8.60559,1.4945 -14.72237,1.4945 -6.20097,0 -11.096576,-0.48445 -14.550726,-1.44145 -2.244458,-0.62194 -3.718168,-1.4696 -4.321108,-2.47045 0.70734,0.89421 2.10125,1.63578 4.166409,2.20738 3.462351,0.95863 8.366705,1.44525 14.574775,1.44525 6.12389,0 11.22285,-0.51748 14.74588,-1.49667" />
      <path
         inkscape:connector-curvature="0"
         id="path7102"
         style="fill:#ffffff;fill-opacity:1;fill-rule:nonzero;stroke:none;stroke-width:0.54395318"
         d="m 96.648806,194.68874 c -0.43949,0.30637 -1.06483,0.44332 -1.44911,0.44332 -1.42999,0 -2.13459,-1.08529 -2.02964,-2.19656 0.10878,-1.13779 1.02001,-2.23661 2.56971,-2.23661 0.54225,0 1.06811,0.20136 1.06811,0.20136 l -0.0683,1.25688 h -0.10222 c -0.1137,0 -0.11752,-0.11043 -0.12955,-0.16077 -0.0978,-0.43844 -0.40888,-0.67011 -0.90686,-0.67011 -0.75544,0 -1.39336,0.58188 -1.48574,1.5627 -0.07,0.73994 0.47229,1.5757 1.34635,1.5757 0.37116,0 0.90413,-0.18891 1.2649,-0.43791 z m 4.543574,-1.39545 c -0.27112,1.27637 -1.361644,1.93782 -2.446704,1.8117 -1.20532,-0.13965 -1.72352,-1.23576 -1.48847,-2.34378 0.24434,-1.15024 1.27583,-1.88532 2.3915,-1.75595 1.235924,0.14398 1.772174,1.21141 1.543674,2.28803 m -0.95113,0.1494 c 0.14978,-0.70151 0.0957,-1.76244 -0.812834,-1.86799 -0.75161,-0.0877 -1.12824,0.60083 -1.23101,1.08529 -0.14978,0.70746 -0.0552,1.77867 0.81065,1.88044 0.61879,0.072 1.093264,-0.43791 1.233194,-1.09774 m 1.85034,-1.90155 c 0.0137,-0.1494 -0.0344,-0.22734 -0.18476,-0.25008 -0.023,-0.003 -0.0743,-0.0308 -0.0678,-0.0828 l 0.012,-0.11855 h 1.52947 l -0.009,0.0963 c -0.0148,0.0893 -0.0858,0.10393 -0.11807,0.10718 -0.17875,0.0233 -0.23451,0.0888 -0.25309,0.29013 l -0.20554,2.18086 c -0.0656,0.68906 0.21155,0.8233 0.71172,0.8233 0.49962,0 0.80299,-0.14777 0.86695,-0.8233 l 0.20553,-2.18086 c 0.0191,-0.20677 -0.0251,-0.27065 -0.21209,-0.29176 -0.0279,-0.003 -0.0918,-0.0287 -0.0842,-0.0947 l 0.0109,-0.10718 h 1.52947 l -0.0126,0.12612 c -0.0109,0.079 -0.0749,0.0731 -0.10331,0.0785 -0.13939,0.026 -0.19788,0.10501 -0.21155,0.24683 l -0.19733,2.09587 c -0.1066,1.12643 -0.73358,1.48584 -1.84324,1.48584 -1.1102,0 -1.66831,-0.35941 -1.56882,-1.40085 z m 4.5239,0.002 c 0.0131,-0.14507 -0.0312,-0.2241 -0.17218,-0.249 -0.0257,-0.004 -0.082,-0.0282 -0.0787,-0.0828 l 0.0142,-0.12125 h 1.2813 l 1.42999,2.55976 h 0.0109 l 0.1946,-2.02226 c 0.0246,-0.25332 -0.10003,-0.3199 -0.23669,-0.33614 -0.0339,-0.003 -0.0989,-0.026 -0.0929,-0.0779 l 0.0137,-0.12342 h 1.22226 l -0.0148,0.13533 c -0.0126,0.0639 -0.076,0.0655 -0.1044,0.0704 -0.1394,0.0265 -0.19734,0.10501 -0.21046,0.24737 l -0.32743,3.48266 h -0.65267 l -1.72735,-3.01715 h -0.0126 l -0.2345,2.47749 c -0.0246,0.25278 0.0973,0.3199 0.23232,0.33722 0.035,0.004 0.10003,-0.006 0.0989,0.0758 l -0.0131,0.12666 h -1.23046 l 0.0109,-0.12287 c 0.009,-0.0677 0.0749,-0.0785 0.10331,-0.0839 0.13939,-0.026 0.19788,-0.10447 0.21155,-0.24683 z m 5.92437,2.90889 c -0.0219,0.23384 0.10386,0.3329 0.25145,0.36321 0.0388,0.009 0.12081,0.005 0.11261,0.0893 l -0.0104,0.12125 h -1.7268 l 0.0109,-0.12125 c 0.005,-0.0812 0.11698,-0.0828 0.17055,-0.0985 0.13721,-0.0395 0.2591,-0.14128 0.27878,-0.35401 l 0.26567,-2.82066 h -0.53953 c -0.2908,0 -0.4455,0.18079 -0.54936,0.54346 -0.0115,0.0384 -0.023,0.12016 -0.11479,0.12016 h -0.11097 l 0.14978,-1.20491 h 3.34318 l -0.076,1.20491 h -0.0918 c -0.11151,0 -0.11589,-0.0758 -0.11917,-0.1115 -0.0344,-0.36808 -0.15579,-0.55212 -0.44823,-0.55212 h -0.53078 z m 2.91081,0.006 c -0.0175,0.19053 0.007,0.27552 0.2345,0.33777 0.0383,0.0114 0.13666,0.005 0.12573,0.0996 l -0.0131,0.12991 h -1.59726 l 0.01,-0.10447 c 0.005,-0.1272 0.0995,-0.11367 0.13447,-0.12882 0.1394,-0.0579 0.17766,-0.17105 0.19898,-0.40164 l 0.26457,-2.84394 c 0.0126,-0.13911 -0.0273,-0.2176 -0.15415,-0.24629 -0.0301,-0.007 -0.10277,-0.0238 -0.0951,-0.11258 l 0.0115,-0.098 h 2.1898 c 0.70625,0 1.18783,0.49149 1.14902,1.08908 -0.0547,0.81572 -0.62426,1.00517 -1.09982,1.16864 l 0.83087,1.22007 c 0.0853,0.13641 0.16727,0.21435 0.27769,0.23709 0.0301,0.005 0.0869,0 0.0869,0.085 l -0.0109,0.13586 h -1.21023 c 0,0 -0.7139,-1.36567 -1.06921,-1.92699 l 5.3e-4,-0.0254 c 0.62918,-0.0162 1.12224,-0.11042 1.20423,-0.75348 0.0596,-0.45739 -0.24161,-0.68852 -0.79699,-0.68852 h -0.40724 z m 4.54905,-1.52267 h 0.0126 l 0.62534,-1.11343 c 0.0907,-0.16455 0.12354,-0.25008 0.13174,-0.34101 0.009,-0.0953 -0.0377,-0.15427 -0.12135,-0.17971 -0.0344,-0.0103 -0.11534,-0.0103 -0.10987,-0.0969 l 0.0126,-0.11475 h 1.29551 l -0.0142,0.12125 c -0.005,0.0817 -0.0809,0.079 -0.1137,0.0855 -0.0875,0.02 -0.15962,0.0693 -0.21319,0.16617 l -1.28348,2.19223 -0.0864,0.91911 c -0.0126,0.13748 0.0481,0.21543 0.18093,0.24358 0.0323,0.007 0.11042,0.0108 0.10168,0.0882 l -0.012,0.11962 h -1.54204 l 0.0142,-0.1337 c 0.007,-0.0747 0.10496,-0.0693 0.14595,-0.0801 0.12081,-0.033 0.1864,-0.10988 0.19952,-0.23762 l 0.0864,-0.9321 -0.85274,-2.16083 c -0.0465,-0.11855 -0.10277,-0.16564 -0.17984,-0.18404 -0.0383,-0.009 -0.11862,-0.004 -0.11862,-0.10177 l 0.0109,-0.10555 h 1.59233 l -0.012,0.10231 c -0.004,0.0855 -0.0842,0.0985 -0.11698,0.10447 -0.0864,0.0162 -0.1629,0.0303 -0.13939,0.14344 z m -21.216874,2.79685 h 1.228284 v 0.35617 h -0.743424 v 0.36699 h 0.72046 v 0.35618 h -0.72046 v 0.65929 h -0.48486 z m 2.061884,0 h 0.48431 v 1.73862 h -0.48431 z m 2.5779,1.22115 h 0.0115 v -1.22115 h 0.43785 v 1.73862 h -0.6073 l -0.57834,-1.22115 h -0.0115 v 1.22115 h -0.44331 v -1.73862 h 0.60512 z m 2.98405,0.51747 h -0.50891 l -0.10605,-0.35724 h -0.65595 l -0.11589,0.35725 h -0.48486 l 0.64503,-1.73862 h 0.61167 z m -0.92981,-1.38244 h -0.009 l -0.21592,0.68419 h 0.4302 z m 2.75173,0.86498 h 0.0109 v -1.22115 h 0.43785 v 1.73862 h -0.60676 l -0.57833,-1.22115 h -0.0115 v 1.22115 h -0.44332 v -1.73862 h 0.60512 z m 2.7397,0.0168 c -0.094,0.35617 -0.31103,0.54237 -0.70788,0.54237 -0.4466,0 -0.87297,-0.24033 -0.87297,-0.91099 0,-0.67228 0.45589,-0.91099 0.87297,-0.91099 0.45316,0 0.6483,0.28688 0.69258,0.52992 l -0.44277,0.0844 c -0.0142,-0.0872 -0.0596,-0.25819 -0.2766,-0.25819 -0.13173,0 -0.33563,0.0861 -0.33563,0.53966 0,0.2858 0.0585,0.56944 0.33563,0.56944 0.19679,0 0.25473,-0.16888 0.2919,-0.28364 z m 0.71937,-1.23793 h 0.48377 v 1.73862 h -0.48377 z m 2.9682,1.73862 h -0.50837 l -0.10659,-0.35725 h -0.65486 l -0.11698,0.35725 h -0.48486 l 0.64611,-1.73862 h 0.61059 z m -0.92927,-1.38245 h -0.01 l -0.21483,0.68419 h 0.42965 z m 1.51197,-0.35617 h 0.48486 v 1.37271 h 0.65487 v 0.36591 h -1.13973 z m 2.16903,1.88531 c -0.252,0 -0.46682,-0.19053 -0.46682,-0.45306 0,-0.26144 0.21482,-0.45252 0.46682,-0.45252 0.25036,0 0.46409,0.19108 0.46409,0.45252 0,0.26253 -0.21373,0.45306 -0.46409,0.45306 m -0.3728,-0.45306 c 0,0.2176 0.16289,0.37782 0.3728,0.37782 0.20881,0 0.37116,-0.16022 0.37116,-0.37782 0,-0.21597 -0.16235,-0.37782 -0.37116,-0.37782 -0.20991,0 -0.3728,0.16185 -0.3728,0.37782 m 0.27659,0.26253 h -0.0804 v -0.52397 h 0.20116 c 0.12518,0 0.18749,0.0455 0.18749,0.14993 0,0.0926 -0.0601,0.1337 -0.1372,0.14345 l 0.14923,0.23059 h -0.0891 l -0.13939,-0.22735 h -0.0918 z m 0.0951,-0.29338 c 0.0678,0 0.129,-0.006 0.129,-0.0861 0,-0.0649 -0.0596,-0.0763 -0.11588,-0.0763 h -0.10824 v 0.16239 z" />
    </g>
  </g>
</svg>
