<?xml version="1.0"?>
<svg xmlns="http://www.w3.org/2000/svg" width="252" height="100.05491" viewBox="0 0 66.675003 26.472862">
  <g
     transform="translate(107.15625,-79.391838) matrix(0.61127681,0,0,0.61127681,447.48875,102.908)">
      <path
         d="m -865.12053,-12.10592 v -1.135062 h -8.23383 v -5.593292 h 7.25487 v -1.135062 h -7.25487 v -5.082646 h 8.03804 v -1.135063 h -9.36625 v 14.081125 z m 2.26748,-4.968875 c 0,-2.267479 0.70379,-4.233333 3.34433,-4.164541 v -1.272646 c -1.70127,0 -2.65906,0.547687 -3.30464,2.172229 h -0.0397 v -1.897063 h -1.17475 v 10.130896 h 1.17475 z m 5.45571,-5.162021 h -1.17211 v 10.130896 h 1.17211 z m 0.0635,-3.950229 h -1.29117 v 1.74625 h 1.29117 z m 2.28864,8.310563 c 0.23548,-1.915584 1.32292,-3.577167 3.40254,-3.577167 2.11667,0 3.20675,1.603375 3.20675,3.577167 h -6.61458 z m 7.86077,0.978958 c 0.0185,-3.638021 -1.68275,-5.611812 -4.46087,-5.611812 -2.89454,0 -4.65402,2.423583 -4.65402,5.378979 0,2.992437 1.40758,5.291666 4.65402,5.291666 2.58233,0 3.79412,-1.465791 4.3815,-3.38402 h -1.32292 c -0.35189,1.486958 -1.54517,2.328333 -3.07181,2.328333 -2.24896,0 -3.42106,-1.820333 -3.40254,-4.008438 h 7.86077 z m -26.05087,6.9479583 h -1.32292 V 4.134205 h 1.32292 z m 3.25966,8.6227707 a 5.2228749,5.2228749 0 0 1 0.26459,-1.9155833 2.9553958,2.9553958 0 0 1 2.81516,-1.9764374 c 1.87855,0 2.62203,0.9207499 2.62203,2.7384374 V 4.134205 h 1.1721 v -6.6331041 c 0,-0.841375 -0.0185,-1.603375 -0.508,-2.3256875 -0.72496,-1.0583333 -1.85208,-1.4472708 -3.09033,-1.4472708 -1.40759,0 -2.32834,0.6852708 -3.26761,1.68275 v -1.4102292 h -1.1721 V 4.134205 h 1.1721 v -5.4583541 z m 7.8158,2.28600001 c 0.0979,1.91822919 1.46579,3.43958329 3.85233,3.43958329 2.38654,0 4.1275,-1.016 4.1275,-2.95275 0,-3.8920207 -6.49288,-2.1722291 -6.49288,-4.9265416 0,-1.0371666 0.79375,-1.7409583 2.28865,-1.7409583 1.4949,0 2.52413,0.5662083 2.73844,2.1325417 h 1.19327 c -0.29369,-2.2886458 -1.72244,-3.1882292 -3.91054,-3.1882292 -2.24896,0 -3.55865,1.2117917 -3.55865,2.8945417 0,3.98991658 6.49288,1.9182291 6.49288,4.8498124 0,0.9763125 -0.79375,1.8758958 -2.50296,1.8758958 -1.75948,0 -2.65906,-0.6455833 -3.03213,-2.38124996 h -1.19327 z m 15.875,-1.44727082 c 0,2.23043751 -1.15359,3.83381241 -3.09034,3.83381241 -1.83885,0 -2.60085,-0.9577916 -2.60085,-2.69874992 V -5.9993366 h -1.1774 v 6.66749995 c 0,2.11666665 0.89959,3.73591665 3.59834,3.73591665 1.778,0 2.64583,-0.9763125 3.26495,-1.6801042 V 4.134205 h 1.17211 V -5.9993366 h -1.17211 v 5.51391663 z m 4.06135,-0.35189583 c 0,-2.26747916 0.70379,-4.23333326 3.34433,-4.16454156 v -1.2726459 c -1.70127,0 -2.65906,0.5476875 -3.30464,2.1722292 h -0.0423 v -1.8944167 h -1.1721 V 4.134205 h 1.1721 v -4.9715208 z m 10.23937,1.23031249 c 0,2.05316665 -1.83885,2.95274995 -3.70416,2.95274995 -1.11654,0 -2.19075,-0.587375 -2.19075,-1.8203333 0,-1.36789581 1.07421,-2.01347914 2.85485,-2.15106247 1.01865,-0.079375 2.03465,-0.15610417 3.03213,-0.56620833 V 0.39299668 Z M -835.58245,-1.56492 c -2.36537,0.3148542 -3.54012,1.34937502 -3.54012,3.0506458 0,1.9552708 1.60337,2.9104167 3.38402,2.9104167 a 4.9688749,4.9688749 0 0 0 3.7756,-1.6801042 c 0.0185,0.7037917 0.15611,1.3890625 0.93927,1.5054792 a 2.2992291,2.2992291 0 0 0 0.52917,0.058208 3.2252708,3.2252708 0 0 0 0.92075,-0.1957917 V 3.16583 c -0.99748,0.3518958 -1.23296,0.1375833 -1.23296,-0.79375 v -5.4953958 c 0,-2.3468541 -1.6219,-3.1485416 -3.67506,-3.1485416 -2.21192,0 -3.98992,0.9577917 -4.16454,3.3443333 h 1.19327 c 0.21431,-1.7594792 1.32291,-2.2886458 2.95275,-2.2886458 1.81768,0 2.52148,0.8598958 2.52148,2.0531666 0,0.3518959 -0.0397,0.8810625 -0.42863,1.0583333 a 5.8419999,5.8419999 0 0 1 -1.54517,0.3307292 z m 7.9375,0.2354792 a 5.2255208,5.2255208 0 0 1 0.26458,-1.9155833 2.9553958,2.9553958 0 0 1 2.81517,-1.9764375 c 1.87854,0 2.62202,0.92075 2.62202,2.7384375 v 6.6145832 h 1.17211 v -6.6304582 c 0,-0.841375 -0.0185,-1.603375 -0.508,-2.3256875 -0.72496,-1.0583333 -1.85209,-1.4472708 -3.09034,-1.4472708 -1.40758,0 -2.32833,0.6852708 -3.2676,1.68275 v -1.4102292 h -1.17211 V 4.134205 h 1.17211 v -5.4583541 z m 16.79311,-1.4869583 c -0.3519,-2.3468541 -1.87855,-3.46075 -4.20423,-3.46075 -3.03213,0 -4.65402,2.5426458 -4.65402,5.35781247 0,2.99243743 1.4261,5.31812493 4.65402,5.31812493 2.54264,0 3.95023,-1.524 4.36033,-3.77295829 h -1.25148 c -0.26458,1.68274999 -1.3679,2.71727079 -3.10885,2.71727079 -2.42623,0 -3.40255,-2.1298958 -3.40255,-4.26243743 0,-2.13254167 0.99748,-4.30212497 3.40255,-4.30212497 1.56368,0 2.60085,0.8995833 3.01095,2.4050625 z m 1.94733,1.17475 c 0.23548,-1.9182292 1.32292,-3.5798125 3.40254,-3.5798125 2.11667,0 3.2094,1.603375 3.2094,3.5798125 h -6.62252 z m 7.86077,0.9789583 c 0.0185,-3.6380208 -1.68275,-5.6118124 -4.46088,-5.6118124 -2.89189,0 -4.65402,2.4235833 -4.65402,5.37897907 0,2.95539583 1.40759,5.29166663 4.65402,5.29166663 2.58234,0 3.79413,-1.4657917 4.3815,-3.3840208 h -1.32291 c -0.3519,1.4869583 -1.54517,2.3256874 -3.07181,2.3256874 -2.24896,0 -3.42107,-1.8203333 -3.40255,-4.0084374 h 7.86077 z"
         style="fill:#010101;stroke-width:0.26458332" />
      <path
         d="m -900.93718,4.1051008 h 6.0325 c 0.34132,0 0.45509,-0.058208 0.45509,-0.28575 0,-0.1137708 -0.11377,-0.2275417 -0.34132,-0.3995208 l -6.19918,-3.98462497 a 1.0239375,1.0239375 0 0 0 -0.5133,-0.22754167 c -0.11377,0 -0.22754,0.0582083 -0.22754,0.39952083 V 3.41983 c 0,0.4550833 0.28575,0.682625 0.79375,0.682625 m 1.76477,-24.032104 v -2.164292 c 0,-0.341312 -0.11377,-0.682625 -0.51064,-0.682625 -0.39688,0 -0.51329,0.341313 -0.51329,0.682625 v 3.077105 c 0,0.227541 0.16933,0.341312 0.34131,0.11377 l 0.5715,-0.624416 a 0.43127083,0.43127083 0 0 0 0.11377,-0.399521 m 3.07446,1.137708 v -4.384146 a 0.85724999,0.85724999 0 1 0 -1.70921,0 v 3.302 c 0,0.399521 0.0556,0.513292 0.17198,0.568855 l 1.19592,0.740833 a 0.22489583,0.22489583 0 0 0 0.34131,-0.227542 m 1.82298,1.537229 0.79375,0.510646 a 0.21695833,0.21695833 0 0 0 0.34131,-0.171979 v -5.291667 c 0,-0.513291 -0.17198,-0.854604 -0.62442,-0.854604 -0.45243,0 -0.68527,0.341313 -0.68527,0.854604 v 4.614334 a 0.29897916,0.29897916 0 0 0 0.17198,0.341312 m -7.28927,-6.720416 a 0.10583333,0.10583333 0 0 0 0,0.169333 l 0.34131,0.28575 a 0.17197916,0.17197916 0 0 0 0.17198,0 l 1.42346,-1.651 4.49792,-0.79375 3.302,2.278062 a 0.174625,0.174625 0 0 0 0.22754,0 l 0.39952,-0.455083 a 0.10583333,0.10583333 0 0 0 0,-0.169333 l -0.39952,-0.343959 -1.02394,-1.822979 -2.28071,-1.54252 -3.92906,0.627062 c -0.17198,0.05556 -0.17198,0.05556 -0.17198,0.227542 0,0.113771 0.11377,0.113771 0.22754,0.113771 l 3.36021,-0.510646 c 0.11377,0 0.22754,0.05556 0.22754,0.341312 0,0.28575 0,0.341313 -0.28575,0.399521 l -4.32858,0.738188 z m 22.32554,-14.067896 h -27.67806 v 25.968854 c 0,0.341312 0.28575,0.396875 0.51329,0.171979 l 4.83923,-5.820833 v -4.497917 l -1.32292,-1.195917 a 0.59002083,0.59002083 0 0 1 -0.22754,-0.455083 c 0,-0.171979 0.0582,-0.227542 0.22754,-0.455083 l 3.70417,-4.384146 2.61938,-0.399521 v -5.820833 a 0.48947916,0.48947916 0 0 1 -0.17198,-0.341313 0.42862499,0.42862499 0 0 1 0.39952,-0.39952 0.40745833,0.40745833 0 0 1 0.45508,0.39952 0.48947916,0.48947916 0 0 1 -0.17198,0.341313 v 5.752042 l 1.19592,-0.17198 3.01889,2.116667 1.02659,1.93675 0.8546,0.624417 a 0.34395833,0.34395833 0 0 1 0.17198,0.343958 0.81491666,0.81491666 0 0 1 -0.22754,0.455083 l -1.82298,2.116667 v 5.468937 l 10.1944,6.4928753 a 0.73289582,0.73289582 0 0 1 0.39952,0.5132917 0.72231249,0.72231249 0 0 1 -0.39952,0.6270625 l -2.05053,1.5372291 v 6.48493743 L -879.6488,1.99108 a 0.24341666,0.24341666 0 0 0 0.39952,-0.1719792 V -38.037732 Z m -19.31458,31.4377913 16.11577,10.4219373 a 1.2488333,1.2488333 0 0 0 0.79375,0.28575 h 1.82298 c 0.39687,0 0.56885,-0.058208 0.56885,-0.28575 a 0.43127083,0.43127083 0 0 0 -0.22754,-0.2831041 L -898.3178,-8.6531074 c -0.28575,-0.1719791 -0.51329,-0.1719791 -0.51329,0.2831042 v 1.3678958 a 0.42862499,0.42862499 0 0 0 0.28575,0.3995208 m 6.08541,0.5132917 2.11667,-0.5688542 c 0.2831,-0.055562 0.45508,-0.1693333 0.45508,-0.3995208 0,-0.1719792 -0.0556,-0.3413125 -0.34131,-0.7408333 -0.51329,-0.682625 -1.3679,-1.5875 -2.73315,-1.5875 -1.02393,0 -1.36525,0.682625 -1.36525,1.2514792 0,0.6270624 0.34132,1.1377083 0.62442,1.5372291 a 1.1773958,1.1773958 0 0 0 0.79375,0.5688542 1.2435417,1.2435417 0 0 0 0.45508,-0.058208 m -14.06789,-0.79375 7.00617,-8.2576463 c 0.22754,-0.283104 0.28575,-0.396875 0.39952,-0.396875 0.16933,0 0.22754,0.113771 0.22754,0.341313 v 0.169333 a 0.46037499,0.46037499 0 0 0 0.28046,0.505354 l 13.09952,8.2576463 a 0.32808333,0.32808333 0 0 0 0.51329,-0.2831041 v -1.1959167 l 1.42346,-1.0265833 c 0.22754,-0.1719792 0.28575,-0.2275417 0.28575,-0.4550833 a 0.66410416,0.66410416 0 0 0 -0.34132,-0.4550834 l -14.34835,-8.9429165 a 1.5875,1.5875 0 0 0 -0.68527,-0.28575 0.69585416,0.69585416 0 0 0 -0.56885,0.341312 l -7.51417,8.9402712 a 0.61118749,0.61118749 0 0 0 -0.17198,0.5106458 v 2.1166667 c 0,0.28575 0.22754,0.3413125 0.39952,0.1137708 m 14.18167,10.9907915 h 7.68879 c 0.45508,0 0.45508,-0.3995208 0.11377,-0.5688541 L -901.27584,-7.224357 c -0.28575,-0.1693333 -0.45509,-0.1137708 -0.45509,0.2275417 v 0.4577291 l -5.01121,5.97958329 a 0.61118749,0.61118749 0 0 0 -0.17197,0.39952083 V 2.6789967 c 0,0.28575 0.0582,0.3413124 0.22754,0.3413124 a 0.75406249,0.75406249 0 0 0 0.34131,-0.2857499 l 3.98727,-4.7254583 c 0.17198,-0.2275417 0.34131,-0.4550833 0.45508,-0.4550833 0.11377,0 0.16934,0.058208 0.16934,0.2275416 v 0.2275417 c 0,0.2831041 0,0.2831041 0.28575,0.4550833 l 8.25764,5.3525208 a 1.1985625,1.1985625 0 0 0 0.85461,0.28575"
         style="fill:#0b7abf;stroke-width:0.26458332" />
      <path
         d="m -800.40345,-5.8300032 a 1.3943541,1.3943541 0 1 1 1.35467,-1.397 1.3520208,1.3520208 0 0 1 -1.35467,1.397 m 0,-3.0665208 a 1.6721666,1.6721666 0 1 0 1.69069,1.6668749 1.6695208,1.6695208 0 0 0 -1.69069,-1.6668749"
         style="fill:#010101;stroke-width:0.26458332" />
      <path
         d="m -800.75799,-7.3434199 v -0.5979583 h 0.39687 c 0.20373,0 0.42069,0.044979 0.42069,0.2831042 0,0.2963333 -0.22225,0.3148541 -0.46831,0.3148541 z m 1.12448,-0.2963333 c 0,-0.381 -0.2249,-0.5476875 -0.67998,-0.5476875 h -0.73554 v 1.9288125 h 0.29104 v -0.8360834 h 0.33602 l 0.508,0.8360834 h 0.32808 l -0.55033,-0.8493125 a 0.50270833,0.50270833 0 0 0 0.50006,-0.5291667"
         style="fill:#010101;stroke-width:0.26458332" />
      <path
         d="m -800.75799,-7.3434199 v -0.5979583 h 0.39687 c 0.20373,0 0.42069,0.044979 0.42069,0.2831042 0,0.2963333 -0.22225,0.3148541 -0.46831,0.3148541 z m 1.12448,-0.2963333 c 0,-0.381 -0.2249,-0.5476875 -0.67998,-0.5476875 h -0.73554 v 1.9288125 h 0.29104 v -0.8360834 h 0.33602 l 0.508,0.8360834 h 0.32808 l -0.55033,-0.8493125 a 0.50270833,0.50270833 0 0 0 0.50006,-0.5291667"
         style="fill:#010101;stroke-width:0.26458332" />
      <path
         d="m -800.75799,-7.3434199 v -0.5979583 h 0.39687 c 0.20373,0 0.42069,0.044979 0.42069,0.2831042 0,0.2963333 -0.22225,0.3148541 -0.46831,0.3148541 z m 1.12448,-0.2963333 c 0,-0.381 -0.2249,-0.5476875 -0.67998,-0.5476875 h -0.73554 v 1.9288125 h 0.29104 v -0.8360834 h 0.33602 l 0.508,0.8360834 h 0.32808 l -0.55033,-0.8493125 a 0.50270833,0.50270833 0 0 0 0.50006,-0.5291667"
         style="fill:#010101;stroke-width:0.26458332" />
  </g>
</svg>
